<?xml version="1.0" encoding="UTF-8" standalone="no"?><!DOCTYPE svg PUBLIC "-//W3C//DTD SVG 1.1//EN" "http://www.w3.org/Graphics/SVG/1.1/DTD/svg11.dtd"><svg width="100%" height="100%" viewBox="0 0 2000 2000" version="1.1" xmlns="http://www.w3.org/2000/svg" xmlns:xlink="http://www.w3.org/1999/xlink" xml:space="preserve" xmlns:serif="http://www.serif.com/" style="fill-rule:evenodd;clip-rule:evenodd;stroke-linejoin:round;stroke-miterlimit:2;"><path d="M1000,0c551.915,0 1000,448.085 1000,1000c0,551.915 -448.085,1000 -1000,1000c-551.915,0 -1000,-448.085 -1000,-1000c-0,-551.915 448.085,-1000 1000,-1000Zm0,333.333c-367.943,0 -666.667,298.724 -666.667,666.667c0,367.943 298.724,666.667 666.667,666.667c367.943,-0 666.667,-298.724 666.667,-666.667c-0,-367.943 -298.724,-666.667 -666.667,-666.667Z"/><path d="M1000,1000l666.667,666.667l-1333.33,-0l666.667,-666.667Z"/><rect x="527.778" y="1472.22" width="942.622" height="410.294"/></svg>