<?xml version="1.0" encoding="UTF-8" standalone="no"?><!DOCTYPE svg PUBLIC "-//W3C//DTD SVG 1.1//EN" "http://www.w3.org/Graphics/SVG/1.1/DTD/svg11.dtd"><svg width="100%" height="100%" viewBox="0 0 2000 2000" version="1.1" xmlns="http://www.w3.org/2000/svg" xmlns:xlink="http://www.w3.org/1999/xlink" xml:space="preserve" xmlns:serif="http://www.serif.com/" style="fill-rule:evenodd;clip-rule:evenodd;stroke-linejoin:round;stroke-miterlimit:2;"><rect x="0" y="0" width="2000" height="2000" style="fill:#fff;"/><clipPath id="_clip1"><rect id="Nuvoxu-Wordmark.svg" serif:id="Nuvoxu Wordmark.svg" x="250" y="864.341" width="1500" height="271.318"/></clipPath><g clip-path="url(#_clip1)"><path d="M1510.67,1135.84l-65.861,-0l-52.235,-87.626l-52.424,87.626l-65.482,-0l83.272,-135.697l-83.272,-135.697l65.482,0l52.424,87.626l52.235,-87.626l65.861,0l-83.273,135.697l83.273,135.697Z" style="fill-rule:nonzero;"/><path d="M1749.89,1027.4c0,15.014 -2.839,29.114 -8.516,42.299c-5.678,13.185 -13.438,24.666 -23.279,34.445c-9.841,9.778 -21.354,17.506 -34.539,23.183c-13.185,5.678 -27.285,8.517 -42.299,8.517c-15.014,-0 -29.114,-2.839 -42.299,-8.517c-13.185,-5.677 -24.666,-13.405 -34.444,-23.183c-9.779,-9.779 -17.507,-21.26 -23.184,-34.445c-5.678,-13.185 -8.517,-27.285 -8.517,-42.299l0,-162.95l54.127,0l0,162.95c0,7.444 1.42,14.447 4.259,21.008c2.839,6.56 6.718,12.301 11.639,17.222c4.921,4.921 10.693,8.8 17.317,11.639c6.624,2.839 13.658,4.258 21.102,4.258c7.444,0 14.478,-1.419 21.102,-4.258c6.624,-2.839 12.396,-6.718 17.317,-11.639c4.921,-4.921 8.8,-10.662 11.639,-17.222c2.839,-6.561 4.259,-13.564 4.259,-21.008l-0,-162.95l54.316,0l0,162.95Z" style="fill-rule:nonzero;"/><g id="O"><rect x="1065.95" y="1064.06" width="127.875" height="55.66"/><path d="M1130.01,1000l90.439,90.439l-180.879,-0l90.44,-90.439Z"/><path d="M1130.01,877.907c67.384,-0 122.093,54.708 122.093,122.093c-0,67.385 -54.709,122.093 -122.093,122.093c-67.386,0 -122.093,-54.708 -122.093,-122.093c-0,-67.385 54.707,-122.093 122.093,-122.093Zm-0,40.698c-44.924,-0 -81.396,36.472 -81.396,81.395c0,44.923 36.472,81.395 81.396,81.395c44.922,0 81.395,-36.472 81.395,-81.395c0,-44.923 -36.473,-81.395 -81.395,-81.395Z"/><path d="M1130.01,864.099c75.005,-0 135.901,60.895 135.901,135.901c-0,75.006 -60.896,135.901 -135.901,135.901c-75.007,0 -135.902,-60.895 -135.902,-135.901c0,-75.006 60.895,-135.901 135.902,-135.901Zm-0,45.3c-50.005,0 -90.601,40.597 -90.601,90.601c-0,50.004 40.596,90.601 90.601,90.601c50.004,-0 90.6,-40.597 90.6,-90.601c0,-50.004 -40.596,-90.601 -90.6,-90.601Z"/></g><path d="M466.895,1135.84l-58.101,-0l-104.659,-178.658l-0,178.658l-54.317,-0l0,-271.394l58.102,0l104.659,178.848l-0,-178.848l54.316,0l0,271.394Z" style="fill-rule:nonzero;"/><path d="M731.286,1027.4c0,15.014 -2.838,29.114 -8.516,42.299c-5.678,13.185 -13.437,24.666 -23.279,34.445c-9.841,9.778 -21.354,17.506 -34.539,23.183c-13.185,5.678 -27.284,8.517 -42.299,8.517c-15.014,-0 -29.114,-2.839 -42.299,-8.517c-13.184,-5.677 -24.666,-13.405 -34.444,-23.183c-9.778,-9.779 -17.506,-21.26 -23.184,-34.445c-5.678,-13.185 -8.517,-27.285 -8.517,-42.299l0,-162.95l54.128,0l-0,162.95c-0,7.444 1.419,14.447 4.258,21.008c2.839,6.56 6.719,12.301 11.639,17.222c4.921,4.921 10.693,8.8 17.317,11.639c6.624,2.839 13.658,4.258 21.102,4.258c7.444,0 14.478,-1.419 21.102,-4.258c6.624,-2.839 12.397,-6.718 17.317,-11.639c4.921,-4.921 8.801,-10.662 11.64,-17.222c2.838,-6.561 4.258,-13.564 4.258,-21.008l-0,-162.95l54.316,0l0,162.95Z" style="fill-rule:nonzero;"/><path d="M985.836,864.45l-89.14,271.394l-54.316,-0l-88.761,-271.394l61.697,0l54.127,181.119l54.317,-181.119l62.076,0Z" style="fill-rule:nonzero;"/></g></svg>