<?xml version="1.0" encoding="UTF-8" standalone="no"?><!DOCTYPE svg PUBLIC "-//W3C//DTD SVG 1.1//EN" "http://www.w3.org/Graphics/SVG/1.1/DTD/svg11.dtd"><svg width="100%" height="100%" viewBox="0 0 1548 280" version="1.1" xmlns="http://www.w3.org/2000/svg" xmlns:xlink="http://www.w3.org/1999/xlink" xml:space="preserve" xmlns:serif="http://www.serif.com/" style="fill-rule:evenodd;clip-rule:evenodd;stroke-linejoin:round;stroke-miterlimit:2;"><path d="M1301.01,280.191l-67.969,0l-53.906,-90.429l-54.102,90.429l-67.578,0l85.938,-140.039l-85.938,-140.039l67.578,0l54.102,90.43l53.906,-90.43l67.969,0l-85.938,140.039l85.938,140.039Z" style="fill-rule:nonzero;"/><path d="M1547.89,168.277c-0,15.495 -2.93,30.046 -8.789,43.653c-5.86,13.606 -13.868,25.455 -24.024,35.547c-10.156,10.091 -22.038,18.066 -35.644,23.925c-13.607,5.86 -28.158,8.789 -43.653,8.789c-15.494,0 -30.045,-2.929 -43.652,-8.789c-13.607,-5.859 -25.456,-13.834 -35.547,-23.925c-10.091,-10.092 -18.066,-21.941 -23.926,-35.547c-5.859,-13.607 -8.789,-28.158 -8.789,-43.653l0,-168.164l55.86,0l-0,168.164c-0,7.683 1.465,14.909 4.394,21.68c2.93,6.771 6.934,12.695 12.012,17.773c5.078,5.079 11.035,9.083 17.871,12.012c6.836,2.93 14.095,4.395 21.777,4.395c7.683,-0 14.942,-1.465 21.778,-4.395c6.836,-2.929 12.793,-6.933 17.871,-12.012c5.078,-5.078 9.082,-11.002 12.011,-17.773c2.93,-6.771 4.395,-13.997 4.395,-21.68l0,-168.164l56.055,0l-0,168.164Z" style="fill-rule:nonzero;"/><g id="O"><rect x="842.059" y="206.111" width="131.967" height="57.441"/><path d="M908.171,140l93.333,93.333l-186.667,0l93.334,-93.333Z"/><path d="M908.171,14c69.541,-0 126,56.459 126,126c-0,69.541 -56.459,126 -126,126c-69.542,0 -126,-56.459 -126,-126c-0,-69.541 56.458,-126 126,-126Zm-0,42c-46.361,-0 -84,37.639 -84,84c-0,46.361 37.639,84 84,84c46.36,0 84,-37.639 84,-84c-0,-46.361 -37.64,-84 -84,-84Z"/><path d="M908.171,-0.25c77.406,-0 140.25,62.844 140.25,140.25c-0,77.406 -62.844,140.25 -140.25,140.25c-77.407,-0 -140.25,-62.844 -140.25,-140.25c-0,-77.406 62.843,-140.25 140.25,-140.25Zm-0,46.75c-51.605,-0 -93.5,41.896 -93.5,93.5c-0,51.604 41.895,93.5 93.5,93.5c51.604,-0 93.5,-41.896 93.5,-93.5c-0,-51.604 -41.896,-93.5 -93.5,-93.5Z"/></g><path d="M223.836,280.191l-59.961,0l-108.008,-184.375l0,184.375l-56.055,0l0,-280.078l59.961,0l108.008,184.571l0,-184.571l56.055,0l-0,280.078Z" style="fill-rule:nonzero;"/><path d="M496.688,168.277c-0,15.495 -2.93,30.046 -8.79,43.653c-5.859,13.606 -13.867,25.455 -24.023,35.547c-10.156,10.091 -22.038,18.066 -35.645,23.925c-13.606,5.86 -28.157,8.789 -43.652,8.789c-15.495,0 -30.045,-2.929 -43.652,-8.789c-13.607,-5.859 -25.456,-13.834 -35.547,-23.925c-10.091,-10.092 -18.066,-21.941 -23.926,-35.547c-5.859,-13.607 -8.789,-28.158 -8.789,-43.653l0,-168.164l55.859,0l0,168.164c0,7.683 1.465,14.909 4.395,21.68c2.93,6.771 6.934,12.695 12.012,17.773c5.078,5.079 11.035,9.083 17.871,12.012c6.836,2.93 14.095,4.395 21.777,4.395c7.682,-0 14.942,-1.465 21.777,-4.395c6.836,-2.929 12.793,-6.933 17.872,-12.012c5.078,-5.078 9.082,-11.002 12.011,-17.773c2.93,-6.771 4.395,-13.997 4.395,-21.68l-0,-168.164l56.055,0l-0,168.164Z" style="fill-rule:nonzero;"/><path d="M759.383,0.113l-91.992,280.078l-56.055,0l-91.602,-280.078l63.672,0l55.86,186.914l56.054,-186.914l64.063,0Z" style="fill-rule:nonzero;"/></svg>