<?xml version="1.0" encoding="UTF-8" standalone="no"?><!DOCTYPE svg PUBLIC "-//W3C//DTD SVG 1.1//EN" "http://www.w3.org/Graphics/SVG/1.1/DTD/svg11.dtd"><svg width="100%" height="100%" viewBox="0 0 2000 2000" version="1.1" xmlns="http://www.w3.org/2000/svg" xmlns:xlink="http://www.w3.org/1999/xlink" xml:space="preserve" xmlns:serif="http://www.serif.com/" style="fill-rule:evenodd;clip-rule:evenodd;stroke-linejoin:round;stroke-miterlimit:2;"><rect x="0" y="0" width="2000" height="2000" style="fill:#fff;"/><clipPath id="_clip1"><rect id="Letters.svg" x="250" y="864.341" width="1500" height="271.318"/></clipPath><g clip-path="url(#_clip1)"><text x="1274.67px" y="1135.84px" style="font-family:'Righteous-Regular', 'Righteous';font-size:387.597px;">XU</text><g id="O"><rect x="1065.95" y="1064.06" width="127.875" height="55.66"/><path d="M1130.01,1000l90.439,90.439l-180.879,-0l90.44,-90.439Z"/><path d="M1130.01,877.907c67.384,-0 122.093,54.708 122.093,122.093c-0,67.385 -54.709,122.093 -122.093,122.093c-67.386,0 -122.093,-54.708 -122.093,-122.093c-0,-67.385 54.707,-122.093 122.093,-122.093Zm-0,40.698c-44.924,-0 -81.396,36.472 -81.396,81.395c0,44.923 36.472,81.395 81.396,81.395c44.922,0 81.395,-36.472 81.395,-81.395c0,-44.923 -36.473,-81.395 -81.395,-81.395Z"/><path d="M1130.01,864.099c75.005,-0 135.901,60.895 135.901,135.901c-0,75.006 -60.896,135.901 -135.901,135.901c-75.007,0 -135.902,-60.895 -135.902,-135.901c0,-75.006 60.895,-135.901 135.902,-135.901Zm-0,45.3c-50.005,0 -90.601,40.597 -90.601,90.601c-0,50.004 40.596,90.601 90.601,90.601c50.004,-0 90.6,-40.597 90.6,-90.601c0,-50.004 -40.596,-90.601 -90.6,-90.601Z"/></g><text x="224.647px" y="1135.84px" style="font-family:'Righteous-Regular', 'Righteous';font-size:387.597px;">NUV</text></g></svg>